<?xml version="1.0" encoding="UTF-8" standalone="no"?>
<!-- Created with Inkscape (http://www.inkscape.org/) -->

<svg
   xmlns:dc="http://purl.org/dc/elements/1.1/"
   xmlns:cc="http://creativecommons.org/ns#"
   xmlns:rdf="http://www.w3.org/1999/02/22-rdf-syntax-ns#"
   xmlns:svg="http://www.w3.org/2000/svg"
   xmlns="http://www.w3.org/2000/svg"
   xmlns:xlink="http://www.w3.org/1999/xlink"
   xmlns:sodipodi="http://sodipodi.sourceforge.net/DTD/sodipodi-0.dtd"
   xmlns:inkscape="http://www.inkscape.org/namespaces/inkscape"
   width="32"
   height="32"
   id="svg2"
   sodipodi:version="0.32"
   inkscape:version="0.48.3.1 r9886"
   version="1.0"
   sodipodi:docname="circular-application-menu.svg"
   inkscape:output_extension="org.inkscape.output.svg.inkscape">
  <defs
     id="defs4">
    <linearGradient
       id="linearGradient3480">
      <stop
         style="stop-color:#000000;stop-opacity:1;"
         offset="0"
         id="stop3482" />
      <stop
         style="stop-color:#ffffff;stop-opacity:0;"
         offset="1"
         id="stop3484" />
    </linearGradient>
    <inkscape:perspective
       sodipodi:type="inkscape:persp3d"
       inkscape:vp_x="0 : 526.18109 : 1"
       inkscape:vp_y="0 : 1000 : 0"
       inkscape:vp_z="744.09448 : 526.18109 : 1"
       inkscape:persp3d-origin="372.04724 : 350.78739 : 1"
       id="perspective10" />
    <inkscape:perspective
       id="perspective2390"
       inkscape:persp3d-origin="372.04724 : 350.78739 : 1"
       inkscape:vp_z="744.09448 : 526.18109 : 1"
       inkscape:vp_y="0 : 1000 : 0"
       inkscape:vp_x="0 : 526.18109 : 1"
       sodipodi:type="inkscape:persp3d" />
    <linearGradient
       inkscape:collect="always"
       xlink:href="#linearGradient3480"
       id="linearGradient3637"
       gradientUnits="userSpaceOnUse"
       x1="539.68951"
       y1="254.92175"
       x2="499.12466"
       y2="235.77309" />
    <linearGradient
       inkscape:collect="always"
       xlink:href="#linearGradient3480"
       id="linearGradient3639"
       gradientUnits="userSpaceOnUse"
       x1="539.68951"
       y1="254.92175"
       x2="499.12466"
       y2="235.77309" />
    <linearGradient
       inkscape:collect="always"
       xlink:href="#linearGradient3480"
       id="linearGradient3641"
       gradientUnits="userSpaceOnUse"
       x1="539.68951"
       y1="254.92175"
       x2="499.12466"
       y2="235.77309" />
    <linearGradient
       inkscape:collect="always"
       xlink:href="#linearGradient3480"
       id="linearGradient3643"
       gradientUnits="userSpaceOnUse"
       x1="539.68951"
       y1="254.92175"
       x2="499.12466"
       y2="235.77309" />
    <linearGradient
       inkscape:collect="always"
       xlink:href="#linearGradient3480"
       id="linearGradient3645"
       gradientUnits="userSpaceOnUse"
       x1="539.68951"
       y1="254.92175"
       x2="499.12466"
       y2="235.77309" />
    <linearGradient
       inkscape:collect="always"
       xlink:href="#linearGradient3480"
       id="linearGradient3647"
       gradientUnits="userSpaceOnUse"
       x1="539.68951"
       y1="254.92175"
       x2="499.12466"
       y2="235.77309" />
    <linearGradient
       y2="482.33612"
       x2="180.55124"
       y1="502.23358"
       x1="180.55124"
       gradientUnits="userSpaceOnUse"
       id="linearGradient2226"
       xlink:href="#linearGradient3685"
       inkscape:collect="always" />
    <linearGradient
       y2="482.33612"
       x2="180.55124"
       y1="502.23358"
       x1="180.55124"
       gradientUnits="userSpaceOnUse"
       id="linearGradient4629"
       xlink:href="#linearGradient3685"
       inkscape:collect="always" />
    <radialGradient
       r="12.159574"
       fy="449.36105"
       fx="196.39554"
       cy="449.36105"
       cx="196.39554"
       gradientTransform="matrix(1.8904738,7.0428553e-7,-7.1385477e-7,1.7459227,-174.88477,-333.50653)"
       gradientUnits="userSpaceOnUse"
       id="radialGradient4620"
       xlink:href="#linearGradient3662"
       inkscape:collect="always" />
    <linearGradient
       y2="495.41687"
       x2="208.00241"
       y1="445.27399"
       x1="208.00241"
       gradientUnits="userSpaceOnUse"
       id="linearGradient4617"
       xlink:href="#linearGradient3697"
       inkscape:collect="always" />
    <linearGradient
       y2="482.33612"
       x2="180.55124"
       y1="502.23358"
       x1="180.55124"
       gradientUnits="userSpaceOnUse"
       id="linearGradient4615"
       xlink:href="#linearGradient3685"
       inkscape:collect="always" />
    <radialGradient
       r="12.159574"
       fy="449.36105"
       fx="196.39554"
       cy="449.36105"
       cx="196.39554"
       gradientTransform="matrix(1.8904738,7.0428553e-7,-7.1385477e-7,1.7459227,-174.88477,-333.50653)"
       gradientUnits="userSpaceOnUse"
       id="radialGradient4611"
       xlink:href="#linearGradient3662"
       inkscape:collect="always" />
    <radialGradient
       r="12.159574"
       fy="449.36105"
       fx="196.39554"
       cy="449.36105"
       cx="196.39554"
       gradientTransform="matrix(1.8904738,7.0428553e-7,-7.1385477e-7,1.7459227,-174.88477,-333.50653)"
       gradientUnits="userSpaceOnUse"
       id="radialGradient3824"
       xlink:href="#linearGradient3662"
       inkscape:collect="always" />
    <linearGradient
       y2="495.41687"
       x2="208.00241"
       y1="445.27399"
       x1="208.00241"
       gradientUnits="userSpaceOnUse"
       id="linearGradient3819"
       xlink:href="#linearGradient3697"
       inkscape:collect="always" />
    <linearGradient
       y2="482.33612"
       x2="180.55124"
       y1="502.23358"
       x1="180.55124"
       gradientUnits="userSpaceOnUse"
       id="linearGradient3817"
       xlink:href="#linearGradient3685"
       inkscape:collect="always" />
    <linearGradient
       inkscape:collect="always"
       id="linearGradient3696">
      <stop
         style="stop-color:#bdccd6;stop-opacity:1"
         offset="0"
         id="stop3698" />
      <stop
         style="stop-color:#aeb693;stop-opacity:0;"
         offset="1"
         id="stop3700" />
    </linearGradient>
    <linearGradient
       inkscape:collect="always"
       xlink:href="#linearGradient3696"
       id="linearGradient3016"
       gradientUnits="userSpaceOnUse"
       gradientTransform="translate(8.020297,12.03047)"
       x1="65.96106"
       y1="-73.912018"
       x2="65.96106"
       y2="-41.830791" />
    <linearGradient
       inkscape:collect="always"
       xlink:href="#linearGradient3645"
       id="linearGradient3018"
       gradientUnits="userSpaceOnUse"
       gradientTransform="matrix(0.964715,0,0,0.963726,66.02245,-7.730381)"
       x1="53.07806"
       y1="-74.032806"
       x2="53.078056"
       y2="-32.782139" />
    <defs
       id="defs2412">
      <pattern
         id="wbg"
         patternUnits="userSpaceOnUse"
         x="0"
         y="0"
         width="100"
         height="4"
         viewBox="0 0 100 4">
        <rect
           x="0"
           y="0"
           width="100"
           height="1"
           fill="rgb(230,230,230)"
           id="rect2415" />
        <rect
           x="0"
           y="1"
           width="100"
           height="3"
           fill="white"
           id="rect2417" />
      </pattern>
    </defs>
    <defs
       id="defs2360">
      <!--gradient for the backround-->
      <linearGradient
         id="bg"
         x1="0.5"
         y1="0"
         x2="0.5"
         y2="1">
        <stop
           offset="0%"
           stop-color="rgb(0,0,20)"
           stop-opacity=".8"
           id="stop2363" />
        <stop
           offset="100%"
           stop-color="rgb(200,200,256)"
           stop-opacity=".8"
           id="stop2365" />
      </linearGradient>
      <!--gradient for the top highlight-->
      <linearGradient
         id="hlt"
         x1="35.355339"
         y1="0"
         x2="35.355339"
         y2="70.710678"
         gradientTransform="scale(1.4142136,0.7071068)"
         gradientUnits="userSpaceOnUse">
        <stop
           offset="0%"
           stop-color="white"
           stop-opacity="1"
           id="stop2368" />
        <stop
           offset="90%"
           stop-color="white"
           stop-opacity="0"
           id="stop2370" />
      </linearGradient>
      <!--gradient for the top highlight bullet-->
      <linearGradient
         id="hltbl"
         x1="25"
         y1="-2.0634963e-30"
         x2="25"
         y2="50"
         gradientUnits="userSpaceOnUse">
        <stop
           offset="0%"
           stop-color="white"
           stop-opacity="1"
           id="stop2373" />
        <stop
           offset="100%"
           stop-color="white"
           stop-opacity="0"
           id="stop2375" />
      </linearGradient>
      <!--gradient for the bottom highlight-->
      <linearGradient
         id="hlb"
         x1="35.355339"
         y1="0"
         x2="35.355339"
         y2="70.710678"
         gradientTransform="scale(1.4142136,0.7071068)"
         gradientUnits="userSpaceOnUse">
        <stop
           offset="20%"
           stop-color="white"
           stop-opacity="0"
           id="stop2378" />
        <stop
           offset="100%"
           stop-color="white"
           stop-opacity="1"
           id="stop2380" />
      </linearGradient>
      <!--gradient for the bottom highlight bullet-->
      <linearGradient
         id="hlbbl"
         x1="25"
         y1="-2.0634963e-30"
         x2="25"
         y2="50"
         gradientUnits="userSpaceOnUse">
        <stop
           offset="0%"
           stop-color="white"
           stop-opacity="0"
           id="stop2383" />
        <stop
           offset="100%"
           stop-color="white"
           stop-opacity="1"
           id="stop2385" />
      </linearGradient>
      <!--gaussian blur for the bottom highlight-->
      <filter
         id="gblur2">
        <feGaussianBlur
           stdDeviation="2"
           id="feGaussianBlur2388" />
      </filter>
      <filter
         id="gblur1">
        <feGaussianBlur
           stdDeviation="1"
           id="feGaussianBlur2391" />
      </filter>
      <!--shape of the button-->
      <rect
         style="stroke:none"
         id="bt"
         x="0"
         y="0"
         rx="25"
         ry="25"
         width="100"
         height="50" />
      <!--shape of bullet-->
      <circle
         style="stroke:none"
         sodipodi:ry="25"
         sodipodi:rx="25"
         sodipodi:cy="25"
         sodipodi:cx="25"
         id="bl"
         cx="25"
         cy="25"
         r="25" />
    </defs>
    <pattern
       patternTransform="translate(5,5)"
       id="pattern2646"
       xlink:href="#wbg"
       inkscape:collect="always" />
    <linearGradient
       id="linearGradient3662">
      <stop
         id="stop3664"
         offset="0"
         style="stop-color:#c00000;stop-opacity:1;" />
      <stop
         id="stop3666"
         offset="1"
         style="stop-color:#000000;stop-opacity:1;" />
    </linearGradient>
    <linearGradient
       id="linearGradient3685"
       inkscape:collect="always">
      <stop
         id="stop3687"
         offset="0"
         style="stop-color:#ffffff;stop-opacity:1;" />
      <stop
         id="stop3689"
         offset="1"
         style="stop-color:#ffffff;stop-opacity:0;" />
    </linearGradient>
    <linearGradient
       id="linearGradient3697"
       inkscape:collect="always">
      <stop
         id="stop3699"
         offset="0"
         style="stop-color:#ffffff;stop-opacity:1;" />
      <stop
         id="stop3701"
         offset="1"
         style="stop-color:#ffffff;stop-opacity:0;" />
    </linearGradient>
    <inkscape:perspective
       id="perspective4030"
       inkscape:persp3d-origin="12 : 8 : 1"
       inkscape:vp_z="24 : 12 : 1"
       inkscape:vp_y="0 : 1000 : 0"
       inkscape:vp_x="0 : 12 : 1"
       sodipodi:type="inkscape:persp3d" />
    <linearGradient
       inkscape:collect="always"
       xlink:href="#bg"
       id="linearGradient4103"
       x1="35.355339"
       y1="0"
       x2="35.355339"
       y2="70.710678"
       gradientTransform="scale(1.4142136,0.7071068)"
       gradientUnits="userSpaceOnUse" />
    <linearGradient
       inkscape:collect="always"
       xlink:href="#bg"
       id="linearGradient4105"
       x1="25"
       y1="-2.0634963e-30"
       x2="25"
       y2="50"
       gradientUnits="userSpaceOnUse" />
    <linearGradient
       inkscape:collect="always"
       xlink:href="#linearGradient3480"
       id="linearGradient3106"
       gradientUnits="userSpaceOnUse"
       x1="539.68951"
       y1="254.92175"
       x2="499.12466"
       y2="235.77309" />
  </defs>
  <sodipodi:namedview
     id="base"
     pagecolor="#ffffff"
     bordercolor="#666666"
     borderopacity="1.0"
     gridtolerance="10000"
     guidetolerance="10"
     objecttolerance="10"
     inkscape:pageopacity="0.0"
     inkscape:pageshadow="2"
     inkscape:zoom="4.8937894"
     inkscape:cx="19.469901"
     inkscape:cy="-14.272738"
     inkscape:document-units="px"
     inkscape:current-layer="layer1"
     showgrid="false"
     inkscape:window-width="889"
     inkscape:window-height="727"
     inkscape:window-x="138"
     inkscape:window-y="40"
     inkscape:window-maximized="0" />
  <metadata
     id="metadata7">
    <rdf:RDF>
      <cc:Work
         rdf:about="">
        <dc:format>image/svg+xml</dc:format>
        <dc:type
           rdf:resource="http://purl.org/dc/dcmitype/StillImage" />
      </cc:Work>
    </rdf:RDF>
  </metadata>
  <g
     inkscape:label="Layer 1"
     inkscape:groupmode="layer"
     id="layer1">
    <g
       id="g4107"
       transform="translate(-483.57745,-211.2116)">
      <g
         transform="matrix(0.5591137,0,0,0.5591137,220.25685,100.17448)"
         id="g3608">
        <g
           id="g3539"
           transform="translate(-21.23077,-22.378378)"
           style="stroke:#1a1a1a">
          <path
             id="path3237"
             d="m 521.83844,234.4375 0,8.59375 0,8.59375 1.03125,-0.4375 c 0.56697,-0.24256 5.22292,-2.27699 10.34375,-4.5 l 9.3125,-4.03125 -0.15625,-0.125 0.15625,0 0,-7.96875 -8,0 0,2.71875 c -3.26419,-1.47349 -6.86248,-2.39875 -10.6875,-2.6875 l -2,-0.15625 z"
             style="fill:#000000;fill-opacity:1;stroke:#1a1a1a;stroke-width:1;stroke-miterlimit:4;stroke-opacity:1;stroke-dasharray:none"
             inkscape:connector-curvature="0" />
          <g
             id="g3522"
             style="stroke:#1a1a1a">
            <path
               style="fill:#000000;fill-opacity:1;stroke:#1a1a1a;stroke-width:1;stroke-miterlimit:4;stroke-opacity:1;stroke-dasharray:none"
               d="m 521.84375,226.40625 0,8.59375 0,8.59375 1.03125,-0.4375 c 0.56697,-0.24256 5.2229,-2.27699 10.34375,-4.5 l 9.3125,-4.03125 -1.0625,-0.9375 c -4.63887,-4.11816 -10.83833,-6.6103 -17.65625,-7.125 l -1.96875,-0.15625 z"
               id="path3518"
               inkscape:connector-curvature="0" />
            <path
               style="fill:url(#linearGradient3637);fill-opacity:1;stroke:#1a1a1a;stroke-width:1;stroke-miterlimit:4;stroke-opacity:1;stroke-dasharray:none"
               d="m 521.84375,226.40625 0,8.59375 0,8.59375 1.03125,-0.4375 c 0.56697,-0.24256 5.2229,-2.27699 10.34375,-4.5 l 9.3125,-4.03125 -1.0625,-0.9375 c -4.63887,-4.11816 -10.83833,-6.6103 -17.65625,-7.125 l -1.96875,-0.15625 z"
               id="path3504"
               inkscape:connector-curvature="0" />
          </g>
        </g>
        <g
           id="g3545"
           transform="translate(-21.804574,-22.378378)"
           style="stroke:#1a1a1a">
          <path
             id="path3387"
             d="m 520.3519,234.32933 0,8.59375 0,8.59375 -1.03125,-0.4375 c -0.56697,-0.24256 -5.22292,-2.27699 -10.34375,-4.5 l -9.3125,-4.03125 0.15625,-0.125 -0.15625,0 0,-7.96875 8,0 0,2.71875 c 3.26419,-1.47349 6.86248,-2.39875 10.6875,-2.6875 l 2,-0.15625 z"
             style="fill:#000000;fill-opacity:1;stroke:#1a1a1a;stroke-width:1;stroke-miterlimit:4;stroke-opacity:1;stroke-dasharray:none"
             inkscape:connector-curvature="0" />
          <g
             id="g3526"
             style="stroke:#1a1a1a">
            <path
               style="fill:#000000;fill-opacity:1;stroke:#1a1a1a;stroke-width:1;stroke-miterlimit:4;stroke-opacity:1;stroke-dasharray:none"
               d="m 520.34375,226.28125 -1.96875,0.15625 c -6.81795,0.5147 -13.01738,3.00684 -17.65625,7.125 l -1.0625,0.96875 9.3125,4.03125 c 5.12085,2.22303 9.77678,4.22619 10.34375,4.46875 l 1.03125,0.46875 0,-8.625 0,-8.59375 z"
               id="path3520"
               inkscape:connector-curvature="0" />
            <path
               style="fill:url(#linearGradient3639);fill-opacity:1;stroke:#1a1a1a;stroke-width:1;stroke-miterlimit:4;stroke-opacity:1;stroke-dasharray:none"
               d="m 520.34375,226.28125 -1.96875,0.15625 c -6.81795,0.5147 -13.01738,3.00684 -17.65625,7.125 l -1.0625,0.96875 9.3125,4.03125 c 5.12085,2.22303 9.77678,4.22619 10.34375,4.46875 l 1.03125,0.46875 0,-8.625 0,-8.59375 z"
               id="path3506"
               inkscape:connector-curvature="0" />
          </g>
        </g>
        <g
           id="g3551"
           transform="translate(-22.378378,-22.378378)"
           style="stroke:#1a1a1a">
          <path
             id="path3393"
             d="m 501.2692,244.88855 c 1.33533,0.0229 2.77708,0.10569 4.21875,0.1875 l 1.09375,0 0,0.0625 c 4.72312,0.29215 9.50404,0.72411 12.125,0.5 -0.11715,1.66543 -0.13164,7.90584 -0.0625,7.96875 0.0692,0.0629 -4.25236,2.203 -9.65625,4.71875 -5.4039,2.51575 -9.91188,4.55483 -10.03125,4.53125 -0.11936,-0.0236 -0.72152,-0.79716 -1.34375,-1.71875 -1.55964,-2.31007 -2.3616,-4.86232 -2.375,-7.4375 -5e-5,-0.0104 3e-5,-0.0208 0,-0.0313 l 0,-8.59375 3.0625,0 c 0.20182,-0.20112 0.35153,-0.23331 0.5,-0.15625 0.77334,-0.0252 1.60755,-0.046 2.46875,-0.0313 z"
             style="fill:#000000;fill-opacity:1;stroke:#1a1a1a;stroke-width:1;stroke-miterlimit:4;stroke-opacity:1;stroke-dasharray:none"
             inkscape:connector-curvature="0" />
          <path
             id="path3516"
             d="m 498.59375,236.84375 c -0.22506,0.057 -0.49867,0.40131 -1.03125,1.21875 -3.10578,4.76694 -3.10065,10.42367 0.0313,15.0625 0.62219,0.92158 1.22439,1.69518 1.34375,1.71875 0.11936,0.0236 4.6586,-2.0155 10.0625,-4.53125 5.40389,-2.51576 9.74844,-4.66612 9.65625,-4.75 -0.0922,-0.0839 -4.53205,-2.01536 -9.84375,-4.3125 -5.31171,-2.29717 -9.80354,-4.27303 -10,-4.375 -0.071,-0.0369 -0.14373,-0.0503 -0.21875,-0.0313 z"
             style="fill:#000000;fill-opacity:1;stroke:#1a1a1a;stroke-width:1;stroke-miterlimit:4;stroke-opacity:1;stroke-dasharray:none"
             inkscape:connector-curvature="0" />
          <path
             id="path3502"
             d="m 498.59375,236.84375 c -0.22506,0.057 -0.49867,0.40131 -1.03125,1.21875 -3.10578,4.76694 -3.10065,10.42367 0.0313,15.0625 0.62219,0.92158 1.22439,1.69518 1.34375,1.71875 0.11936,0.0236 4.6586,-2.0155 10.0625,-4.53125 5.40389,-2.51576 9.74844,-4.66612 9.65625,-4.75 -0.0922,-0.0839 -4.53205,-2.01536 -9.84375,-4.3125 -5.31171,-2.29717 -9.80354,-4.27303 -10,-4.375 -0.071,-0.0369 -0.14373,-0.0503 -0.21875,-0.0313 z"
             style="fill:url(#linearGradient3641);fill-opacity:1;stroke:#1a1a1a;stroke-width:1;stroke-miterlimit:4;stroke-opacity:1;stroke-dasharray:none"
             inkscape:connector-curvature="0" />
        </g>
        <g
           id="g3566"
           transform="translate(-20.656966,-22.378378)"
           style="stroke:#1a1a1a;stroke-opacity:1">
          <path
             id="path3239"
             d="m 540.92106,244.99672 c -1.33533,0.0229 -2.77708,0.10569 -4.21875,0.1875 l -1.09375,0 0,0.0625 c -4.72312,0.29215 -9.50404,0.72411 -12.125,0.5 0.11715,1.66543 0.13164,7.90584 0.0625,7.96875 -0.0692,0.0629 4.25236,2.203 9.65625,4.71875 5.4039,2.51575 9.91188,4.55483 10.03125,4.53125 0.11936,-0.0236 0.72152,-0.79716 1.34375,-1.71875 1.55964,-2.31007 2.3616,-4.86232 2.375,-7.4375 5e-5,-0.0104 -3e-5,-0.0208 0,-0.0313 l 0,-8.59375 -3.0625,0 c -0.20182,-0.20112 -0.35153,-0.23331 -0.5,-0.15625 -0.77334,-0.0252 -1.60755,-0.046 -2.46875,-0.0313 z"
             style="fill:#000000;fill-opacity:1;stroke:#1a1a1a;stroke-width:1;stroke-miterlimit:4;stroke-opacity:1;stroke-dasharray:none"
             inkscape:connector-curvature="0" />
          <g
             id="g3530"
             style="stroke:#1a1a1a;stroke-opacity:1">
            <path
               style="fill:#000000;fill-opacity:1;stroke:#1a1a1a;stroke-width:1;stroke-miterlimit:4;stroke-opacity:1;stroke-dasharray:none"
               d="m 543.59375,236.96875 c -0.075,-0.019 -0.14771,-0.006 -0.21875,0.0313 -0.19646,0.10197 -4.68828,2.04658 -10,4.34375 -5.3117,2.29714 -9.75153,4.25987 -9.84375,4.34375 -0.0922,0.0839 4.25235,2.20299 9.65625,4.71875 5.4039,2.51575 9.94312,4.55482 10.0625,4.53125 0.11936,-0.0236 0.72157,-0.79717 1.34375,-1.71875 3.1319,-4.63883 3.13701,-10.26431 0.0313,-15.03125 -0.53258,-0.81744 -0.80619,-1.16173 -1.03125,-1.21875 z"
               id="path3514"
               inkscape:connector-curvature="0" />
            <path
               style="fill:url(#linearGradient3643);fill-opacity:1;stroke:#1a1a1a;stroke-width:1;stroke-miterlimit:4;stroke-opacity:1;stroke-dasharray:none"
               d="m 543.59375,236.96875 c -0.075,-0.019 -0.14771,-0.006 -0.21875,0.0313 -0.19646,0.10197 -4.68828,2.04658 -10,4.34375 -5.3117,2.29714 -9.75153,4.25987 -9.84375,4.34375 -0.0922,0.0839 4.25235,2.20299 9.65625,4.71875 5.4039,2.51575 9.94312,4.55482 10.0625,4.53125 0.11936,-0.0236 0.72157,-0.79717 1.34375,-1.71875 3.1319,-4.63883 3.13701,-10.26431 0.0313,-15.03125 -0.53258,-0.81744 -0.80619,-1.16173 -1.03125,-1.21875 z"
               id="path3500"
               inkscape:connector-curvature="0" />
          </g>
        </g>
        <g
           id="g3556"
           transform="translate(-21.804574,-22.378378)"
           style="stroke:#1a1a1a">
          <path
             sodipodi:nodetypes="ccccccccc"
             id="path3399"
             d="m 520.35188,264.31034 0,-8.48023 -1.35641,0.62015 c -0.74603,0.34108 -13.87285,-1.58413 -18.62181,0.61877 l -0.004,8.01186 1.14709,1.03154 c 3.86058,3.47168 10.46659,6.01815 16.93569,6.52835 l 1.89898,0.14977 0,-8.48021 z"
             style="fill:#000000;fill-opacity:1;stroke:#1a1a1a;stroke-width:1;stroke-miterlimit:4;stroke-opacity:1;stroke-dasharray:none"
             inkscape:connector-curvature="0" />
          <path
             id="path3512"
             d="M 520.34375,247.8125 519,248.40625 c -0.74605,0.34107 -5.25104,2.42212 -10,4.625 l -8.625,4.03125 1.15625,1.03125 c 3.86057,3.47168 10.43715,6.02105 16.90625,6.53125 l 1.90625,0.125 0,-8.46875 0,-8.46875 z"
             style="fill:#000000;fill-opacity:1;stroke:#1a1a1a;stroke-width:1;stroke-miterlimit:4;stroke-opacity:1;stroke-dasharray:none"
             inkscape:connector-curvature="0" />
          <path
             id="path3498"
             d="M 520.34375,247.8125 519,248.40625 c -0.74605,0.34107 -5.25104,2.42212 -10,4.625 l -8.625,4.03125 1.15625,1.03125 c 3.86057,3.47168 10.43715,6.02105 16.90625,6.53125 l 1.90625,0.125 0,-8.46875 0,-8.46875 z"
             style="fill:url(#linearGradient3106);fill-opacity:1;stroke:#1a1a1a;stroke-width:1;stroke-miterlimit:4;stroke-opacity:1;stroke-dasharray:none"
             inkscape:connector-curvature="0" />
        </g>
        <g
           id="g3561"
           transform="translate(-21.23077,-22.378378)"
           style="stroke:#1a1a1a">
          <path
             sodipodi:nodetypes="ccccccccc"
             id="path3241"
             d="m 521.83844,264.4185 0,-8.48023 1.35641,0.62015 c 0.74603,0.34108 13.87285,-1.58412 18.62181,0.61877 l 0.004,8.01187 -1.14709,1.03153 c -3.86058,3.47168 -10.46659,6.01816 -16.93569,6.52836 l -1.89898,0.14977 0,-8.48022 z"
             style="fill:#000000;fill-opacity:1;stroke:#1a1a1a;stroke-width:1;stroke-miterlimit:4;stroke-opacity:1;stroke-dasharray:none"
             inkscape:connector-curvature="0" />
          <path
             id="path3488"
             d="m 521.84375,247.90625 0,8.46875 0,8.5 1.90625,-0.15625 c 6.4691,-0.5102 13.07694,-3.05956 16.9375,-6.53125 l 1.125,-1.03125 -8.625,-4 c -4.74896,-2.20289 -9.254,-4.28391 -10,-4.625 l -1.34375,-0.625 z"
             style="fill:#000000;fill-opacity:1;stroke:#1a1a1a;stroke-width:1;stroke-miterlimit:4;stroke-opacity:1;stroke-dasharray:none"
             inkscape:connector-curvature="0" />
          <path
             id="path3249"
             d="m 521.84375,247.90625 0,8.46875 0,8.5 1.90625,-0.15625 c 6.4691,-0.5102 13.07694,-3.05956 16.9375,-6.53125 l 1.125,-1.03125 -8.625,-4 c -4.74896,-2.20289 -9.254,-4.28391 -10,-4.625 l -1.34375,-0.625 z"
             style="fill:url(#linearGradient3647);fill-opacity:1;stroke:#1a1a1a;stroke-width:1;stroke-miterlimit:4;stroke-opacity:1;stroke-dasharray:none"
             inkscape:connector-curvature="0" />
        </g>
      </g>
      <g
         transform="matrix(0.6244415,0,0,0.42164,491.84924,219.78195)"
         id="g4087">
        <path
           sodipodi:type="arc"
           style="fill:url(#radialGradient4620);fill-opacity:1;stroke:none"
           id="path2691"
           sodipodi:cx="196.39554"
           sodipodi:cy="446.4101"
           sodipodi:rx="12.159574"
           sodipodi:ry="11.606866"
           d="m 208.55511,446.4101 c 0,6.41029 -5.44402,11.60686 -12.15957,11.60686 -6.71555,0 -12.15958,-5.19657 -12.15958,-11.60686 0,-6.4103 5.44403,-11.60687 12.15958,-11.60687 6.71555,0 12.15957,5.19657 12.15957,11.60687 z"
           transform="matrix(0.9868767,0,0,1.0338708,-181.81818,-449.53036)" />
        <path
           style="fill:#ffffff;fill-opacity:0.71951222;fill-rule:evenodd;stroke:#1a0000;stroke-width:1;stroke-linecap:round;stroke-linejoin:miter;stroke-miterlimit:4;stroke-opacity:1;stroke-dasharray:none;stroke-dashoffset:0"
           d="m 8.1090135,4.9196767 -3.1893371,3.1797993 3.9122551,3.900531 -3.9122551,3.90053 3.1893371,3.179786 3.9122545,-3.90053 3.86972,3.90053 3.189336,-3.179786 -3.912241,-3.90053 3.912241,-3.900531 -3.189336,-3.1797993 -3.86972,3.9005439 -3.9122545,-3.9005439 z"
           id="path3524"
           inkscape:connector-curvature="0" />
        <symbol
           preserveAspectRatio="none"
           viewBox="-5 -5 110 60"
           id="btn">
          <!--background gradient-->
          <use
             height="1052.3622"
             width="744.09448"
             y="0"
             x="0"
             style="fill:url(#linearGradient4103)"
             id="use2396"
             xlink:href="#bt" />
          <!--highlights-->
          <use
             height="1052.3622"
             width="744.09448"
             y="0"
             x="0"
             style="fill:url(#hlt)"
             id="use2398"
             xlink:href="#bt"
             transform="matrix(0.8,0,0,0.45,9.6,1.8)" />
          <use
             height="1052.3622"
             width="744.09448"
             y="0"
             x="0"
             style="fill:url(#hlb);filter:url(#gblur2)"
             id="use2400"
             xlink:href="#bt"
             transform="matrix(0.8,0,0,0.45,9.6,25.65)" />
        </symbol>
        <symbol
           preserveAspectRatio="none"
           viewBox="-5 -5 60 60"
           id="blt">
          <!--background gradient-->
          <use
             height="1052.3622"
             width="744.09448"
             y="0"
             x="0"
             style="fill:url(#linearGradient4105)"
             id="use2403"
             xlink:href="#bl" />
          <!--highlights-->
          <use
             height="1052.3622"
             width="744.09448"
             y="0"
             x="0"
             style="fill:url(#hltbl)"
             id="use2405"
             xlink:href="#bl"
             transform="matrix(0.6,0,0,0.35,9.6,1.4)" />
          <use
             height="1052.3622"
             width="744.09448"
             y="0"
             x="0"
             style="fill:url(#hlbbl);filter:url(#gblur2)"
             id="use2407"
             xlink:href="#bl"
             transform="matrix(0.6,0,0,0.45,9.6,25.65)" />
        </symbol>
        <symbol
           preserveAspectRatio="xMidYMid meet"
           viewBox="0 0 104 112"
           id="kjklogo">
          <path
             style="stroke-linejoin:miter;stroke-miterlimit:10"
             id="path2410"
             stroke-miterlimit="10"
             d="M 52,1 30,1 C 17.390981,1.1196856 6.2026277,9.1113663 2,21 7.9739872,13.44198 17.759255,9.9891036 27.153595,12.124181 36.547935,14.259258 43.879576,21.602342 46,31 l -30,0 c -2.761424,0 -5,2.238576 -5,5 0,2.761424 2.238576,5 5,5 l 30,0 C 43.879576,50.397658 36.547935,57.740742 27.153595,59.875819 17.759255,62.010896 7.9739872,58.55802 2,51 l 50,60 50,-60 C 96.026013,58.55802 86.240745,62.010896 76.846405,59.875819 67.452065,57.740742 60.120424,50.397658 58,41 l 30,0 c 2.761424,0 5,-2.238576 5,-5 0,-2.761424 -2.238576,-5 -5,-5 L 58,31 C 60.120424,21.602342 67.452065,14.259258 76.846405,12.124181 86.240745,9.9891036 96.026013,13.44198 102,21 97.797372,9.1113663 86.609019,1.1196856 74,1 L 52,1 z m 0,7 13,0 C 59.326999,10.746639 54.746639,15.326999 52,21 49.253361,15.326999 44.673001,10.746639 39,8 l 13,0 z m 0,43 c 4.210236,9.856406 13.358984,16.717968 24,18 L 52,97 28,69 C 38.641016,67.717968 47.789764,60.856406 52,51 z m 0,13 c 3.302585,3.831962 7.396593,6.902468 12,9 L 52,87 40,73 c 4.603407,-2.097532 8.697415,-5.168038 12,-9 z"
             inkscape:connector-curvature="0" />
        </symbol>
        <path
           sodipodi:type="arc"
           style="fill:url(#linearGradient4617);fill-opacity:1;stroke:none"
           id="path3695"
           sodipodi:cx="208.00241"
           sodipodi:cy="482.70459"
           sodipodi:rx="22.292551"
           sodipodi:ry="8.4748545"
           d="m 230.29496,482.70459 c 0,4.68053 -9.98071,8.47485 -22.29255,8.47485 -12.31184,0 -22.29255,-3.79432 -22.29255,-8.47485 0,-4.68053 9.98071,-8.47485 22.29255,-8.47485 12.31184,0 22.29255,3.79432 22.29255,8.47485 z"
           transform="matrix(0.3057851,0,0,0.5217391,-51.604038,-246.11664)" />
        <path
           sodipodi:type="arc"
           style="fill:url(#linearGradient2226);fill-opacity:1;stroke:none"
           id="path3670"
           sodipodi:cx="180.55124"
           sodipodi:cy="484.17847"
           sodipodi:rx="8.1063824"
           sodipodi:ry="6.6324949"
           d="m 188.65762,484.17847 c 0,3.66302 -3.62935,6.63249 -8.10638,6.63249 -4.47703,0 -8.10638,-2.96947 -8.10638,-6.63249 0,-3.66303 3.62935,-6.6325 8.10638,-6.6325 4.47703,0 8.10638,2.96947 8.10638,6.6325 z"
           transform="translate(-168.55124,-467.76365)" />
      </g>
    </g>
  </g>
</svg>
